<?xml version="1.0" encoding="utf-8"?>
<!-- Generator: Adobe Illustrator 25.4.1, SVG Export Plug-In . SVG Version: 6.00 Build 0)  -->
<svg version="1.1" id="Layer_1" xmlns="http://www.w3.org/2000/svg" xmlns:xlink="http://www.w3.org/1999/xlink" x="0px" y="0px"
	 viewBox="0 0 692.5 948.8" style="enable-background:new 0 0 692.5 948.8;" xml:space="preserve">
<style type="text/css">
	.st0{clip-path:url(#SVGID_00000112596033699170636660000003208772268250291093_);}
	.st1{fill:#0D2429;}
	.st2{fill:#07181C;}
	.st3{fill:#092124;}
</style>
<g id="Layer_2_00000090271056716858742240000000835484001400722324_">
	<g id="ò__1">
		<g>
			<defs>
				<rect id="SVGID_1_" x="-88.1" y="58.2" width="782.1" height="890.5"/>
			</defs>
			<clipPath id="SVGID_00000146485515855533783600000003830564075114204574_">
				<use xlink:href="#SVGID_1_"  style="overflow:visible;"/>
			</clipPath>
			<g style="clip-path:url(#SVGID_00000146485515855533783600000003830564075114204574_);">
				<polygon class="st1" points="426.5,893.8 435.7,838.8 495.1,745.5 447.8,766.8 456.8,712.8 486.6,666 462.9,676.7 470.6,630.6 
					504.8,552.8 481.1,568 488.6,523.2 515.6,461.8 496.8,473.8 510.7,391 526.9,365.6 514,371.4 522,323.6 533.2,306 524.3,310 
					543.3,196.1 563.3,340 551.7,332.9 566.8,365.4 581.6,471.8 559.1,458.1 588.4,520.9 594.1,562.2 571,552.8 598.2,591.9 
					607.3,656.9 579.6,645.7 612.2,692.4 623.1,770.9 575.7,751.8 631.5,831.8 643.2,915.7 611.4,902.8 648.8,956.4 657.8,1021 
					405.2,1021 412.2,979.2 482.6,868.5 				"/>
				<polygon class="st1" points="102.6,895 108.9,860.9 149.6,803.1 117.2,816.3 123.4,782.9 143.8,753.9 127.6,760.5 132.9,732 
					156.3,683.9 140,693.2 145.2,665.5 163.7,627.5 150.9,634.9 160.4,583.7 171.5,567.9 162.6,571.5 168.1,541.9 175.8,531 
					169.7,533.5 182.8,463 196.4,552.1 188.5,547.7 198.9,567.8 209,633.7 193.6,625.2 213.6,664.1 217.6,689.7 201.7,683.9 
					220.4,708.1 226.6,748.3 207.6,741.4 230,770.3 237.4,818.9 204.9,807 243.2,856.6 251.2,908.5 229.5,900.6 255.1,933.7 
					261.2,973.8 88,973.8 92.8,947.8 141.1,879.3 				"/>
				<polygon class="st1" points="293.9,920.4 301.1,877.8 347,805.6 310.4,822.1 317.4,780.3 340.4,744.1 322.1,752.4 328,716.7 
					354.5,656.5 336.2,668.2 342,633.6 362.9,586.1 348.4,595.3 359.1,531.3 371.6,511.6 361.6,516.1 367.8,479.1 376.5,465.5 
					369.6,468.6 384.4,380.4 399.8,491.8 390.8,486.3 402.5,511.5 414,593.8 396.6,583.2 419.2,631.8 423.7,663.8 405.7,656.5 
					426.9,686.8 433.8,737.1 412.4,728.4 437.6,764.6 446.1,825.3 409.4,810.5 452.6,872.4 461.6,937.3 437.1,927.4 466,968.9 
					472.9,1018.9 277.4,1018.9 282.9,986.5 337.4,900.8 				"/>
				<polygon class="st2" points="759.2,843.6 750,788.6 690.6,695.3 737.9,716.7 728.9,662.7 699.1,615.8 722.8,626.5 715.1,580.4 
					680.9,502.7 704.6,517.8 697.1,473 670.1,411.7 688.8,423.7 675,340.9 658.8,315.5 671.7,321.3 663.7,273.5 652.5,255.9 
					661.4,259.9 642.4,146 622.4,289.9 634,282.8 618.9,315.3 604.1,421.7 626.6,408 597.3,470.7 591.6,512 614.7,502.7 
					587.4,541.8 578.4,606.8 606.1,595.6 573.5,642.3 562.6,720.8 610,701.6 554.2,781.6 542.5,865.5 574.2,852.7 536.9,906.3 
					527.9,970.9 780.5,970.9 773.5,929 703,818.3 				"/>
				<polygon class="st2" points="316.4,911.5 309.5,874.2 265,811 300.5,825.4 293.7,788.8 271.3,757.1 289.1,764.3 283.3,733.1 
					257.6,680.4 275.5,690.7 269.8,660.3 249.6,618.7 263.6,626.8 253.2,570.7 241.1,553.5 250.7,557.4 244.7,525 236.3,513.1 
					243,515.8 228.7,438.6 213.7,536.1 222.4,531.3 211.1,553.3 200,625.5 216.9,616.2 194.9,658.7 190.6,686.7 207.9,680.4 
					187.5,706.9 180.7,751 201.5,743.4 177,775 168.8,828.2 204.4,815.2 162.5,869.5 153.7,926.4 177.6,917.7 149.5,954 
					142.8,997.8 332.4,997.8 327.2,969.4 274.3,894.3 				"/>
				<polygon class="st3" points="268.7,843.2 212.7,868.4 224.5,797.7 274.9,718.5 234.7,736.6 244.5,678 274.2,610.6 253.6,623.8 
					264.1,561.1 274.2,538.2 267.2,542.7 274.7,497.9 294.7,466.4 278.8,473.6 287.5,421.7 294.7,410.2 288.9,412.8 307.2,304 
					325.1,433.1 315.6,427.3 328,453.8 334.5,500.8 315.6,489.3 340.2,542 344.7,574.5 322.1,560.7 351.5,623.8 360.5,688 
					320.6,672 367.5,739.2 373.8,784.1 323.3,763.7 382.8,848.9 388.8,892 343,873.5 396.9,950.7 405.5,1013.1 188.4,1013.1 
					198.4,953.8 				"/>
				<polygon class="st2" points="486.7,897.2 551.9,926.6 538.1,844.3 496.6,763.3 526.2,773.2 514.8,705.1 485.9,639.5 
					504.2,641.9 492,569.1 471.2,542.7 488.4,547.6 479.7,495.6 464.1,464.4 475,467.3 464.8,406.8 456.4,393.5 463.1,396.6 
					441.9,270 421.1,420.1 432.1,413.4 417.7,444.2 410.1,498.9 432.1,485.5 403.5,546.9 398.2,584.7 424.5,568.6 390.3,642 
					379.9,716.7 426.3,698 371.7,776.2 364.4,828.5 408.4,815.8 354,903.9 347,953.9 400.2,932.4 337.5,1022.2 327.5,1094.8 
					580,1094.8 568.5,1025.8 				"/>
			</g>
		</g>
	</g>
</g>
</svg>
