<svg xmlns="http://www.w3.org/2000/svg" xmlns:xlink="http://www.w3.org/1999/xlink" viewBox="0 0 1565.19 792.72"><defs><style>.cls-1{opacity:0.2;fill:url(#É_πÌÚ_·ÂÁ_Ì_Á_Ë_11);}.cls-2{opacity:0.6;fill:url(#É_πÌÚ_·ÂÁ_Ì_Á_Ë_11-2);}.cls-3{fill:url(#É_πÌÚ_·ÂÁ_Ì_Á_Ë_11-3);}</style><linearGradient id="É_πÌÚ_·ÂÁ_Ì_Á_Ë_11" x1="784.11" y1="188.27" x2="784.11" y2="4.54" gradientTransform="translate(-1.51)" gradientUnits="userSpaceOnUse"><stop offset="0" stop-color="#56827b"/><stop offset="0.93" stop-color="#5b8c8c"/></linearGradient><linearGradient id="É_πÌÚ_·ÂÁ_Ì_Á_Ë_11-2" x1="784.11" y1="360.25" x2="784.11" y2="170.96" xlink:href="#É_πÌÚ_·ÂÁ_Ì_Á_Ë_11"/><linearGradient id="É_πÌÚ_·ÂÁ_Ì_Á_Ë_11-3" x1="784.11" y1="763.92" x2="784.11" y2="314.4" xlink:href="#É_πÌÚ_·ÂÁ_Ì_Á_Ë_11"/></defs><g id="Layer_2" data-name="Layer 2"><g id="ò__1" data-name="ò‡_1"><polygon class="cls-1" points="1565.19 3.13 1381.17 51.84 1127.59 0 1016.85 61.76 782.24 149.13 588.86 83.32 472.1 123.59 278.41 25.08 0 102.49 0 493.54 1565.19 493.54 1565.19 3.13"/><polygon class="cls-2" points="1565.19 157.53 1371.89 90.02 1170.75 175.28 932.68 244.01 715.43 167.1 538.79 244.14 96.07 108.72 0 164.18 0 525.67 1565.19 525.67 1565.19 157.53"/><polygon class="cls-3" points="0 792.72 1565.19 792.72 1565.19 232.96 1410.81 313.8 1336.82 276.12 1155.06 365.6 947.87 274.45 888.83 311.87 674.23 410.59 427.96 299.81 257.31 373.74 99.39 270.48 0 313.8 0 792.72"/></g></g></svg>