<svg xmlns="http://www.w3.org/2000/svg" viewBox="0 0 414.79 1271.18"><defs><style>.cls-1{fill:#354a49;}.cls-2{fill:#213b3d;}.cls-3{fill:#0d2429;}.cls-4{fill:#1c3331;}</style></defs><g id="Layer_2" data-name="Layer 2"><g id="ò__1" data-name="ò‡_1"><polygon class="cls-1" points="346.69 1271.18 362.71 1119.61 340.87 1080.75 329.77 974.65 332.33 900.12 290.95 777.48 278.62 577.27 237.8 580.45 226.45 552.36 204.9 502.38 204.37 484.63 219 393.08 184.11 360.83 184.24 335.95 171.5 321.82 174.75 195.04 165.63 147.99 124.19 105.09 57.2 0 0 0 0 0 0 0 0 624.13 0 947.65 0 1271.18 47.63 1271.18 138.69 1271.18 229.76 1271.18 346.69 1271.18"/><polygon class="cls-1" points="414.79 1271.18 398.32 1119.61 340.87 1080.75 329.77 974.65 332.33 900.12 290.95 777.48 278.62 577.27 236.01 574.01 233.76 523.13 204.9 502.38 204.37 484.63 219 393.08 184.11 360.83 184.24 335.95 171.5 321.82 174.75 195.04 165.63 147.99 124.19 105.09 57.2 0 0 0 0 0 0 0 0 624.13 0 947.65 0 1271.18 47.63 1271.18 138.69 1271.18 229.76 1271.18 414.79 1271.18"/><polygon class="cls-2" points="230.49 1036.31 331.89 912.92 332.33 900.12 328.44 888.59 101.07 1087.5 230.49 1036.31"/><polygon class="cls-2" points="291.07 777.83 200.46 819.27 0 1045.77 0 1060.51 313.15 843.29 291.07 777.83"/><polygon class="cls-2" points="287.08 714.62 281.77 628.4 271.07 618.41 0 947.83 0 961.21 237.49 729.04 186.94 818.41 287.08 714.62"/><polygon class="cls-2" points="279.4 589.96 278.62 577.27 236.01 574.01 131.04 692.48 279.4 589.96"/><polygon class="cls-2" points="412.35 1248.68 405.94 1189.74 345.98 1229.38 360.22 1205.65 259.88 1271.18 306.34 1271.18 412.35 1248.68"/><polygon class="cls-2" points="212.06 492.41 211.52 474.66 219 393.08 218.4 392.52 0 794.11 0 828.29 233.76 523.13 212.06 492.41"/><polygon class="cls-2" points="57.2 0 50.22 0 0 123.46 0 154.75 87.92 48.19 57.2 0"/><polygon class="cls-2" points="184.11 360.83 184.24 335.95 171.5 321.82 174.75 195.04 165.63 147.99 124.19 105.09 111.2 84.71 0 390.08 0 531.32 194.93 370.83 184.11 360.83"/><polygon class="cls-2" points="398.32 1119.61 340.87 1080.75 334.78 1022.5 272.06 1060.09 297.89 1021.7 237.87 1058.3 101.66 1261.95 141.28 1271.18 157.61 1271.18 345.87 1138.94 323.45 1180.45 398.32 1119.61"/><polygon class="cls-3" points="255.53 1271.18 248 1214.02 244.12 1185.97 223.31 1127.31 225.39 1042.53 211.15 1005.91 202.43 921.42 188.18 884.8 164.63 897.36 157.41 829.17 162.3 773.11 159.25 711.64 166.22 612.98 145.89 612.07 135.57 560.64 128.37 549.94 125.57 517.28 123.02 506.22 118.64 410.04 94.77 404.71 79.5 391.92 77.57 351.2 61.65 341.94 46.14 384.89 45.73 332.68 41.7 326.61 32.59 325.95 18.5 313.59 10.87 319.31 0 316 0 554.79 0 793.59 0 1032.38 0 1271.18 63.88 1271.18 127.77 1271.18 191.65 1271.18 255.53 1271.18"/><polygon class="cls-4" points="166.22 1149.59 215.66 1017.5 225.21 1042.05 225.3 1042.29 225.39 1042.53 197.23 1153.75 223.31 1127.31 244.12 1185.97 231.75 1225.91 219.91 1271.18 220.91 1217.16 142.51 1271.18 175.9 1193.42 102.95 1271.18 66.78 1271.18 166.22 1149.59"/><polygon class="cls-4" points="0 415.24 27.16 371.7 18.68 417.89 40.33 369.27 45.73 332.68 55.19 406.63 77.57 351.2 80.33 392.62 42.34 497.46 118.64 410.04 119.52 429.42 77.53 499.82 113.81 466.22 68.33 566.48 16.62 614.28 54.66 533.8 0 591.77 0 526.03 30.65 438.27 0 492.28 0 478.86 0 415.24"/><polygon class="cls-4" points="125.57 517.28 128.58 530.33 128.37 549.94 83.99 615.02 36.48 687.04 81.07 602.36 125.57 517.28"/><polygon class="cls-4" points="166.22 612.98 96.17 751.21 108.04 691.51 66.78 779.62 0 896.39 0 826.87 39.45 755.26 23.93 760.11 68.53 684.01 55.73 734.07 135.57 560.64 145.89 612.07 166.22 612.98"/><polygon class="cls-4" points="40.97 894.75 159.15 714.12 162.3 773.11 103.4 942.05 164.63 897.36 188.18 884.8 197.58 908.98 130.59 1094.52 124.57 1031.28 61.74 1193.84 68.57 1113.16 0 1215.93 0 1196.04 37.43 1082.71 60.76 1027.61 0 1107.81 0 997.59 85.88 880.44 40.97 894.75"/><path class="cls-2" d="M258.82,578.64a6.45,6.45,0,0,0,0,.76,2.53,2.53,0,0,0,.43,1.26,1.36,1.36,0,0,0,.89.54,1.92,1.92,0,0,0,2-.79,4.24,4.24,0,0,0,.45-2.37c0-.41-.19-.8-.25-1.21a5.91,5.91,0,0,1,0-1.33c0-.52,0-1,0-1.55a2.79,2.79,0,0,1,.14-1.38,15.08,15.08,0,0,0,1.59-3.19c.35-1.25.66-2.49,1.09-3.73a32.32,32.32,0,0,1,1.33-3.29c.42-.9.79-1.82,1.21-2.72a11.45,11.45,0,0,0,.52-1.2,2.36,2.36,0,0,1,.61-.91,5.19,5.19,0,0,0,.86-1.43c.25-.53.57-1,.8-1.57.17.66.43,1.3.56,2a17.57,17.57,0,0,1,.16,1.91,4.45,4.45,0,0,1,0,1,4.85,4.85,0,0,0-.13.92c0,.67,0,1.33,0,2a4.82,4.82,0,0,1-.08,1c-.07.41-.18.79-.22,1.2s-.1.93-.13,1.41a5.89,5.89,0,0,0,.18,2.17,4.92,4.92,0,0,1,.22,2,5,5,0,0,0,.29,1.87,4.33,4.33,0,0,1-.28,2.13c-.35,1.63,1.92,1.42,2.92,1.77a6.36,6.36,0,0,1,1.69,1.07,4,4,0,0,0,1.66.67A8.94,8.94,0,0,0,279,578a3,3,0,0,0,.92-.18,1.58,1.58,0,0,0,.5-.34c.94-1.2-1.07-2.34-1.93-2.81a10.1,10.1,0,0,1-1.41-.93,2.29,2.29,0,0,1-.73-1.32c-.11-.32-.15-.82-.42-1-.1-.09-.25-.11-.34-.19s-.08-.33-.14-.49-.27-.44-.37-.67c-.22-.51.08-.88.27-1.34a5,5,0,0,0,.34-1.67c0-.23,0-.45,0-.68,0-.52,0-1,0-1.58a6.28,6.28,0,0,1,0-1.37c.08-.39.37-.72.48-1.09a4.38,4.38,0,0,0,.33-1.71,8.15,8.15,0,0,1,.16-2.83,9.31,9.31,0,0,0,0-2.84c0-.61,0-1.23,0-1.85s0-1.54,0-2.3,0-1.67,0-2.49a22.49,22.49,0,0,1,.19-5.25c.2-1.25.69-2.43.88-3.67.3-1.93.47-3.88.74-5.81a13.62,13.62,0,0,1,.62-2.83,3.55,3.55,0,0,1,.85-1.37c.94-.91,2.31-1.21,3.28-2.11.44-.4.85-.83,1.3-1.23a12.67,12.67,0,0,0,2-2,1.1,1.1,0,0,0-.1-1.2c-.17-.33-.31-.67-.49-1a4.65,4.65,0,0,0-.51-.66c-.14-.2-.3-.38-.44-.57a5.68,5.68,0,0,0-.38-.64,9.05,9.05,0,0,0-.57-1,1.85,1.85,0,0,0-.31-.37c-.17-.13-.27-.33-.43-.48s-.41-.32-.59-.5c-.39-.4-.48-1.1-1-1.35-.26-.12-.52,0-.78,0s-.47-.27-.74-.32a.47.47,0,0,0-.31,0c-.1,0-.19.1-.29.14a3,3,0,0,0-.4.11l-.21.1a.48.48,0,0,1-.29,0,1.34,1.34,0,0,0-.48.11c-.18,0-.39-.08-.52.09,0-.2.05-.29.07-.39a4.56,4.56,0,0,0,.12-.9c-.05-.92-1-1.43-1.8-1.64-1.53-.41-3.7-.42-4.91.76-.11.11-.23.36-.37.42s-.2,0-.28,0a.77.77,0,0,0-.18.1,1.29,1.29,0,0,0-.4.33,2.32,2.32,0,0,0-.43,1,4.09,4.09,0,0,0,0,1.67,10.9,10.9,0,0,0,.28,1.26,8,8,0,0,0,.57,1.22,3.76,3.76,0,0,1,.43,1c.07.37-.22.68-.36,1-.31.73-.83,1.68-1.71,1.84-.59.11-1.13.32-1.71.46a8.94,8.94,0,0,0-1.58.62,1.82,1.82,0,0,0-1.2,1.2c-.37,1.17-.66,2.41-1,3.6-.18.66-.38,1.33-.54,2-.24,1-.48,2.1-.71,3.15a11.44,11.44,0,0,0-.18,1.15c-.17,1.57-.56,3.08-.75,4.63a30.9,30.9,0,0,0,0,4.41c0,1.1.17,2.19.19,3.3a.75.75,0,0,0,0,.26c0,.06.17.06.17.13a4.09,4.09,0,0,1-.08.92,6,6,0,0,0-.06,1.47.49.49,0,0,0,.09.33c.15.18.4.1.59,0,0,.37.2.72.63.59,0,.25.06.4.31.47s.49-.06.52.28a1.8,1.8,0,0,1-.48,1.11,6.58,6.58,0,0,0-.67,3.73,5.5,5.5,0,0,1-.19,1.67c-.17.54-.4,1.06-.54,1.6-.06.26-.08.54-.16.8s-.23.51-.33.77a13.75,13.75,0,0,0-.46,2c-.14.65-.22,1.29-.32,1.94s-.5,1.52-.64,2.31c0,.2,0,.43-.06.64a7.63,7.63,0,0,0-.25,1.13,2.27,2.27,0,0,0,.46,1.08,1,1,0,0,1,.2.52,3.56,3.56,0,0,1-.18.52c-.05.2,0,.44-.07.62a2,2,0,0,1-.3.41,2.19,2.19,0,0,0-.24,1.16,10,10,0,0,1-.12,1.24c-.07.37-.21.75-.29,1.13A4.1,4.1,0,0,0,258.82,578.64Zm15.95-53.91c0-.13.13-.3.16-.39a5.44,5.44,0,0,1,.26-.71c.23-.48.66-.48,1.13-.44s1.08.2,1.35-.25a1.55,1.55,0,0,0,.18-.76,1.79,1.79,0,0,1,.07-.69.87.87,0,0,0,.05-.36,2.14,2.14,0,0,1-.06-.35c0-.12.13-.18.13-.3s-.06-.2,0-.28.18,0,.27-.06c.3-.08.58-.3.41-.62-.07-.14-.14-.27-.22-.4a1.2,1.2,0,0,1-.2-.39.52.52,0,0,1,.13-.06.32.32,0,0,1,.47.14c.14.22.34.29.53.45a1.4,1.4,0,0,1,.26.55,1,1,0,0,0,.44.58,5.54,5.54,0,0,0,.62.36c.24.11.35.18.33.46a1,1,0,0,0,.22.63,4.13,4.13,0,0,1,.36.65.57.57,0,0,1-.06.65,1.65,1.65,0,0,1-.36.28A11.16,11.16,0,0,1,280,524a7.89,7.89,0,0,1-1.37.26,14.36,14.36,0,0,1-1.48.3,8.42,8.42,0,0,0-1.42,0,4.22,4.22,0,0,0-.67.26c-.09,0-.22.12-.26,0A.46.46,0,0,1,274.77,524.73ZM265.17,538c.08-.54.17-1.22.24-1.76a3.79,3.79,0,0,0,.11.44c.05.21.06.33.11.54a4.4,4.4,0,0,1,.07.73,17.41,17.41,0,0,1-.19,1.77c0,.33-.07.65-.07,1,0,.47-.48,1.56-.45,2a2.67,2.67,0,0,1-.33,1.43c0-.32-.06-1-.07-1.13,0-.4,0-.82-.09-1.22a19.74,19.74,0,0,1,.61-3.12C265.14,538.44,265.14,538.21,265.17,538Z"/></g></g></svg>